<svg xmlns="http://www.w3.org/2000/svg" xmlns:xlink="http://www.w3.org/1999/xlink" height="800" width="1200" viewBox="-42.166755 -18.451425 365.44521 110.70855"><path d="M36.903 0C16.526 0 0 16.524 0 36.902c0 4.074.66 7.992 1.88 11.657h11.036V17.51l23.987 23.987L60.89 17.51v31.049h11.037c1.22-3.665 1.88-7.583 1.88-11.657C73.807 16.524 57.281 0 36.903 0" fill="#f60"/><path d="M20.9194 36.5427v19.537h-15.55c6.478 10.628 18.178 17.726 31.533 17.726s25.056-7.098 31.533-17.726h-15.549v-19.537l-15.984 15.984z" fill="#4c4c4c"/><path id="a" d="M272.3117 47.4082c-1.951 2.009-4.317 3.01-7.099 3.01-2.458 0-4.631-.772-6.533-2.324-2.445-1.979-3.666-4.674-3.666-8.084 0-3.053.972-5.576 2.916-7.556 1.937-1.987 4.331-2.974 7.184-2.974 2.817 0 5.212 1.016 7.177 3.045 1.973 2.03 2.959 4.512 2.959 7.449 0 2.945-.978 5.418-2.938 7.434m4.097-18.937c-3.132-3.151-6.877-4.731-11.238-4.731-2.874 0-5.561.723-8.048 2.166-2.496 1.444-4.455 3.402-5.877 5.876-1.423 2.473-2.137 5.183-2.137 8.127 0 4.397 1.529 8.192 4.59 11.389 3.058 3.202 6.898 4.796 11.514 4.796 4.411 0 8.165-1.551 11.26-4.668 3.095-3.11 4.639-6.919 4.639-11.416 0-4.533-1.566-8.378-4.703-11.539" fill="#4c4c4c"/><path d="M237.9093 35.6172c-.743.518-1.094.773-3.06.773h-7.736v-6.618h7.496c1.503 0 1.769.113 2.385.345.614.225 1.102.601 1.47 1.118.368.518.548 1.133.548 1.838 0 1.186-.368 2.034-1.103 2.544m.93 6.093c2.049-.736 3.587-1.816 4.607-3.241 1.021-1.433 1.524-3.205 1.524-5.335 0-2.019-.457-3.775-1.381-5.253-.923-1.478-2.146-2.536-3.661-3.174-1.516-.638-4.06-.96-7.639-.96h-11.329v32.34h6.153v-13.694h5.37l7.28 13.694h6.73zm-45.4612-17.97h20.968v6.025h-14.852v6.619h14.852v5.92h-14.852v7.728h14.852v6.049h-20.968zm-32.4883 0h5.891l13.874 21.28v-21.28h6.153v32.34h-5.913l-13.852-21.212v21.212h-6.153z" fill="#4c4c4c"/><use xlink:href="#a" height="75" width="282" transform="translate(-125.0586)"/><path d="M89.2912 23.7393h6.025l7.473 22.557 7.587-22.557h5.935l5.449 32.341h-5.936l-3.474-20.425-6.881 20.425h-5.426l-6.79-20.425-3.542 20.425h-6.003z" fill="#4c4c4c"/></svg>